<?xml version="1.0" encoding="utf-8"?>
<!-- Svg Vector Icons : http://www.onlinewebfonts.com/icon -->
<!DOCTYPE svg PUBLIC "-//W3C//DTD SVG 1.1//EN" "http://www.w3.org/Graphics/SVG/1.1/DTD/svg11.dtd">
<svg version="1.1" xmlns="http://www.w3.org/2000/svg" xmlns:xlink="http://www.w3.org/1999/xlink" x="0px" y="0px" viewBox="0 0 1000 1000" enable-background="new 0 0 1000 1000" xml:space="preserve">
<metadata> Svg Vector Icons : http://www.onlinewebfonts.com/icon </metadata>
<g><g transform="translate(0.000000,511.000000) scale(0.100000,-0.100000)"><path d="M2392.9,4227.3c-258.2-72.9-408.2-256.1-470.7-572.7c-20.8-104.1-31.2-193.7-27.1-199.9c6.2-6.2,1791-360.3,3965.1-787.2C8503,2148.9,9819.1,1899,9827.5,1913.6c6.3,12.5,29.2,116.6,47.9,231.2c29.1,168.7,31.3,229.1,12.5,312.4c-45.8,204.1-199.9,389.4-376.9,454c-87.5,33.3-6734.9,1316.2-6918.2,1337C2544.9,4254.3,2455.3,4243.9,2392.9,4227.3z"/><path d="M1714,2548.8c-31.2-131.2-195.8-1026.7-191.6-1032.9c4.2-4.2,1289.1-4.2,2857.2-2.1l2848.9,6.2l-2694.8,529c-1482.7,291.6-2719.8,533.1-2751,539.4C1736.9,2594.6,1724.4,2588.3,1714,2548.8z"/><path d="M8209.4,1259.7c62.5-58.3,141.6-160.4,177-229.1c125-231.2,127-264.5,127-1818v-1414l89.6,14.6c224.9,37.5,431.1,195.8,499.8,385.3c35.4,95.8,566.4,2848.9,554,2861.4c-8.3,6.3-1522.3,304-1545.2,304C8105.2,1363.8,8149,1315.9,8209.4,1259.7z"/><path d="M483.2,1132.6c-139.5-54.1-287.4-202-341.5-345.7C100,678.7,100,626.6,100-1426.8c0-2053.4,0-2105.4,41.7-2213.7c54.1-147.9,199.9-293.7,347.8-347.8c110.4-41.7,160.3-41.7,3650.7-41.7c3490.3,0,3540.3,0,3650.7,41.7c147.9,54.1,293.7,199.9,347.8,347.8c41.7,108.3,41.7,160.4,41.7,2213.7c0,2053.4,0,2105.4-41.7,2213.7c-54.1,147.9-199.9,293.6-347.8,347.8c-110.4,41.7-158.3,41.7-3656.9,39.6C670.6,1174.3,587.3,1174.3,483.2,1132.6z M7734.5,830.7c31.2-22.9,77.1-68.7,100-100c43.7-56.2,43.7-68.7,43.7-2153.3v-2097.1l-45.8-64.6c-25-35.4-72.9-83.3-104.1-104.1c-56.2-37.5-166.6-39.6-3592.4-39.6H604l-81.2,64.6c-45.8,37.5-89.5,97.9-106.2,143.7c-20.8,60.4-25,520.6-20.8,2134.6L402,670.3l56.2,72.9C574.8,897.3,252,884.8,4165.1,878.6C7676.2,874.4,7678.3,874.4,7734.5,830.7z"/><path d="M5404.2,162.2c-56.2-18.7-145.8-75-199.9-122.9c-266.6-239.5-266.6-651.8,0-891.3c302-270.7,764.3-183.3,943.4,179.1c64.6,129.1,72.9,327,20.8,479C6070.6,99.7,5706.2,268.4,5404.2,162.2z"/><path d="M6326.7,178.8c0-10.4,12.5-29.2,29.2-41.7c14.6-12.5,58.3-91.6,97.9-172.9c66.7-143.7,70.8-164.5,68.8-370.7c0-235.3-33.3-354-143.7-516.5l-52.1-77.1l68.7-6.2c177-16.7,420.7,147.9,518.6,347.8c68.7,141.6,64.6,370.7-10.4,514.4c-70.8,139.5-220.8,270.7-354,310.3C6432.9,201.8,6326.7,208,6326.7,178.8z"/><path d="M2249.2-1697.5c-37.5-22.9-85.4-70.8-108.3-108.3c-83.3-137.4-33.3-324.9,108.3-412.3c64.5-39.6,106.2-41.7,776.8-41.7c670.6,0,712.2,2.1,776.8,41.7c197.8,120.8,197.8,399.8,0,520.6c-64.6,39.6-106.2,41.7-776.8,41.7C2355.4-1655.9,2313.7-1657.9,2249.2-1697.5z"/><path d="M4494.1-1695.4c-202-108.3-202-416.5,0-524.8c66.6-35.4,129.1-39.6,776.8-39.6c774.7,0,781,0,870.5,129.1c100,139.5,45.8,364.5-106.2,443.6c-50,25-183.3,31.2-764.3,31.2C4623.2-1655.9,4560.8-1660,4494.1-1695.4z"/><path d="M1145.4-2634.6c-197.8-120.8-197.8-399.9,0-520.6c64.6-39.6,106.2-41.7,776.8-41.7s712.2,2.1,776.8,41.7c197.8,120.8,197.8,399.9,0,520.6c-64.6,39.6-106.2,41.6-776.8,41.6S1210-2595.1,1145.4-2634.6z"/><path d="M3390.4-2632.5c-202-108.3-202-416.5,0-524.8c66.6-35.4,129.1-39.6,776.8-39.6c581,0,714.3,6.2,764.3,31.2c208.3,108.3,208.3,433.2,0,541.5c-50,25-183.3,31.2-764.3,31.2C3519.5-2593,3457-2597.2,3390.4-2632.5z"/><path d="M5643.7-2634.6c-197.8-120.8-197.8-399.9,0-520.6c64.6-39.6,106.2-41.7,755.9-41.7c631,0,693.5,4.2,760.1,39.6c202,108.3,202,416.5,0,524.8c-66.7,35.4-129.1,39.6-760.1,39.6C5749.9-2593,5708.2-2595.1,5643.7-2634.6z"/></g></g>
</svg>