<svg width="0" height="0" class="hidden">
  <symbol fill="none" xmlns="http://www.w3.org/2000/svg" viewBox="0 0 24 24" id="arrow-right">
    <path d="M10.353 6.354a.5.5 0 00-.707 0l-.293.292a.5.5 0 000 .708L14 12l-4.647 4.646a.5.5 0 000 .708l.293.293a.5.5 0 00.707 0l5.47-5.47a.25.25 0 000-.354l-5.47-5.47z" fill="currentColor"></path>
  </symbol>
  <symbol fill="none" xmlns="http://www.w3.org/2000/svg" viewBox="0 0 24 24" id="as-seen-on-tv">
    <path d="M20 6h-6.58l3.29-3.29L16 2l-4 4h-.03l-4-4-.69.71L10.56 6H4c-1.1 0-2 .9-2 2v12c0 1.1.9 2 2 2h16c1.1 0 2-.9 2-2V8c0-1.1-.9-2-2-2zm.5 13.5a1 1 0 01-1 1h-15a1 1 0 01-1-1v-11a1 1 0 011-1h15a1 1 0 011 1v11z" fill="currentColor"></path>
    <rect x="6" y="10" width="12" height="8" rx=".3" fill="currentColor"></rect>
  </symbol>
  <symbol fill="none" xmlns="http://www.w3.org/2000/svg" viewBox="0 0 32 32" id="basket">
    <path d="M26 12.98h-4.79l-4.38-5.56A.993.993 0 0016 7c-.32 0-.64.14-.83.43l-4.38 5.55H6c-.55 0-1 .45-1 1 0 .09.01.18.04.27l2.54 9.27c.23.84 1 1.46 1.92 1.46h13c.92 0 1.69-.62 1.93-1.46l2.54-9.27.03-.27c0-.55-.45-1-1-1zM16 8.5l3.5 4.48h-7L16 8.5zm7.05 14.797a.25.25 0 01-.24.183H9.19a.25.25 0 01-.24-.183l-2.362-8.5a.25.25 0 01.24-.317h18.343a.25.25 0 01.241.317l-2.361 8.5z" fill="currentColor"></path>
  </symbol>
  <symbol fill="none" xmlns="http://www.w3.org/2000/svg" viewBox="0 0 24 24" id="bay-window">
    <path d="M15.96 8H8.04a.25.25 0 01-.078-.013L2.329 6.11A.25.25 0 002 6.347v11.778c0 .178.181.3.346.23l5.608-2.336A.25.25 0 018.05 16h7.9a.25.25 0 01.096.02l5.608 2.336a.25.25 0 00.346-.231V6.347a.25.25 0 00-.33-.237l-5.632 1.877A.25.25 0 0115.96 8z" stroke="currentColor"></path>
    <path d="M8 8v8m8-8v8" stroke="#000"></path>
    <path d="M2.158 3.526a.5.5 0 10-.316.948l.316-.948zM8 6l-.158.474.077.026H8V6zm8 0v.5h.081l.077-.026L16 6zm6.158-1.526a.5.5 0 10-.316-.948l.316.948zm-20.316 0l6 2 .316-.948-6-2-.316.948zM8 6.5h8v-1H8v1zm8.158-.026l6-2-.316-.948-6 2 .316.948z" fill="currentColor"></path>
  </symbol>
  <symbol fill="none" xmlns="http://www.w3.org/2000/svg" viewBox="0 0 24 24" id="better-sleep">
    <path d="M3 6a1 1 0 012 0v14H3V6z" fill="currentColor"></path>
    <path fill="currentColor" d="M4 17v-2h17v2z"></path>
    <circle cx="8.5" cy="11.5" r="2.5" fill="currentColor"></circle>
    <path d="M12 10.247a1 1 0 011.217-.977L21 11v3h-9v-3.753z" fill="currentColor"></path>
  </symbol>
  <symbol fill="none" xmlns="http://www.w3.org/2000/svg" viewBox="0 0 24 24" id="bi-fold-door">
    <path d="M2.5 4.18a.5.5 0 01.582-.493l4.418.737v15.152l-4.418.737a.5.5 0 01-.582-.493V4.18zm7 15.396V4.424l5-.834v16.82l-5-.834zm7 .834V3.59l4.582.764a.5.5 0 01.418.493v14.306a.5.5 0 01-.418.493l-4.582.764z" stroke="currentColor"></path>
  </symbol>
  <symbol fill="none" xmlns="http://www.w3.org/2000/svg" viewBox="0 0 24 24" id="blackout">
    <path stroke="currentColor" d="M4.5 2.5h15v15h-15z"></path>
    <path d="M12 18v3" stroke="currentColor" stroke-width=".5"></path>
    <rect x="11" y="20" width="2" height="2" rx="1" fill="currentColor"></rect>
    <path fill="currentColor" d="M5 3h14v14H5z"></path>
  </symbol>
  <symbol fill="none" xmlns="http://www.w3.org/2000/svg" viewBox="0 0 24 24" id="chat">
    <mask id="a" fill="#fff">
      <path fill-rule="evenodd" clip-rule="evenodd" d="M3 4a1 1 0 00-1 1v16l2.5-3 .833-1H21a1 1 0 001-1V5a1 1 0 00-1-1H3z"></path>
    </mask>
    <path d="M2 21H.7v3.59l2.299-2.758L2 21zm2.5-3l.999.832L4.5 18zm.833-1v-1.3h-.609l-.39.468 1 .832zM3.3 5a.3.3 0 01-.3.3V2.7A2.3 2.3 0 00.7 5h2.6zm0 10V5H.7v10h2.6zm0 1v-1H.7v1h2.6zm0 5v-5H.7v5h2.6zm.201-3.832l-2.5 3L3 21.832l2.5-3-2-1.664zm.834-1l-.834 1L5.5 18.832l.833-1-1.997-1.664zM21 15.7H5.333v2.6H21v-2.6zm-.3.3a.3.3 0 01.3-.3v2.6a2.3 2.3 0 002.3-2.3h-2.6zm0-11v11h2.6V5h-2.6zm.3.3a.3.3 0 01-.3-.3h2.6A2.3 2.3 0 0021 2.7v2.6zm-18 0h18V2.7H3v2.6z" fill="currentColor" mask="url(#a)"></path>
    <path stroke="currentColor" stroke-width="1.3" stroke-linejoin="round" d="M6 8.35h12m-12 2h12m-12 2h6"></path>
  </symbol>
  <symbol fill="none" xmlns="http://www.w3.org/2000/svg" viewBox="0 0 24 24" id="close">
    <path d="M17.646 7.764a.5.5 0 000-.708l-.702-.702a.5.5 0 00-.707 0l-3.883 3.882a.5.5 0 01-.707 0L7.762 6.353a.5.5 0 00-.707 0l-.703.703a.5.5 0 000 .708l3.883 3.882a.5.5 0 010 .708l-3.882 3.883a.5.5 0 000 .707l.703.703a.5.5 0 00.707 0l3.882-3.883a.5.5 0 01.708 0l3.883 3.883a.5.5 0 00.707 0l.703-.703a.5.5 0 000-.707l-3.883-3.883a.5.5 0 010-.707l3.883-3.883z" fill="currentColor"></path>
  </symbol>
  <symbol fill="none" xmlns="http://www.w3.org/2000/svg" viewBox="0 0 24 24" id="contacts">
    <circle cx="12" cy="12" r="5.25" stroke="currentColor" stroke-width="1.5"></circle>
    <path d="M12 21a9 9 0 10-9-9" stroke="currentColor" stroke-width="1.5"></path>
    <path d="M2 12h2a1 1 0 011 1v2a1 1 0 01-1 1H3a1 1 0 01-1-1v-3zm17 1a1 1 0 011-1h2v3a1 1 0 01-1 1h-1a1 1 0 01-1-1v-2z" fill="currentColor"></path>
  </symbol>
  <symbol fill="none" xmlns="http://www.w3.org/2000/svg" viewBox="0 0 24 24" id="cordless">
    <path fill="#fff" d="M0 0h24v24H0z"></path>
    <path d="M8.5 17h2v.5a1 1 0 11-2 0V17zm5 0h2v.5a1 1 0 11-2 0V17z" fill="currentColor"></path>
    <circle cx="12" cy="12" r="9.5" stroke="currentColor"></circle>
    <path stroke="currentColor" d="M5.354 5.146l13.5 13.5"></path>
    <path d="M10 6H9v1l1 1V6zm5 0h-1v6l1 1V6zM9 17h1v-5.5l-1-1V17zm5 0h1v-.5l-1-1V17z" fill="currentColor"></path>
  </symbol>
  <symbol fill="none" xmlns="http://www.w3.org/2000/svg" viewBox="0 0 24 24" id="day-and-night-blinds">
    <path stroke="currentColor" d="M4.5 2.5h15v19h-15z"></path>
    <path fill="currentColor" d="M5 6h14v2H5zm0-3h14v2H5zm0 6h14v2H5zm0 3h14v2H5zm0 3h14v2H5zm0 3h14v2H5z"></path>
  </symbol>
  <symbol fill="none" xmlns="http://www.w3.org/2000/svg" viewBox="0 0 24 24" id="delivery">
    <path d="M21 17v.75h.75V17H21zm-6-7.25h3v-1.5h-3v1.5zM20.25 12v5h1.5v-5h-1.5zm.75 4.25h-2.5v1.5H21v-1.5zm-3-6.5A2.25 2.25 0 0120.25 12h1.5A3.75 3.75 0 0018 8.25v1.5z" fill="currentColor"></path>
    <circle cx="16.5" cy="17.5" r="1.75" stroke="currentColor" stroke-width="1.5"></circle>
    <path d="M17 11h1a1 1 0 011 1v1h-2v-2zM5.75 8.5h4.5a.75.75 0 000-1.5h-4.5a.75.75 0 000 1.5zm-3 3h7.5a.75.75 0 000-1.5h-7.5a.75.75 0 000 1.5z" fill="currentColor"></path>
    <path d="M4 5h9a2 2 0 012 2v9" stroke="currentColor" stroke-width="1.5" stroke-linecap="round"></path>
    <circle cx="8.5" cy="17.5" r="1.75" stroke="currentColor" stroke-width="1.5"></circle>
    <path d="M15 17h-5m-3 0H4v-4" stroke="currentColor" stroke-width="1.5"></path>
  </symbol>
  <symbol fill="none" xmlns="http://www.w3.org/2000/svg" viewBox="0 0 24 24" id="diffuses-light">
    <path stroke="currentColor" d="M4.5 2.5h15v15h-15z"></path>
    <path d="M12 18v3" stroke="currentColor" stroke-width=".5"></path>
    <rect x="11" y="20" width="2" height="2" rx="1" fill="currentColor"></rect>
    <path fill="currentColor" d="M5 5h14v1H5z"></path>
    <path fill="currentColor" d="M7 17V3h1v14zm3 0V3h1v14zm3 0V3h1v14zm3 0V3h1v14z"></path>
    <path fill="currentColor" d="M5 8h14v1H5zm0 3h14v1H5zm0 3h14v1H5z"></path>
  </symbol>
  <symbol fill="none" xmlns="http://www.w3.org/2000/svg" viewBox="0 0 24 24" id="double-roller-blinds">
    <path fill="currentColor" d="M4 5h7v14H4zm9 0h7v14h-7zM4 20h7v1H5a1 1 0 01-1-1zm16 0h-7v1h6a1 1 0 001-1zm0-16h-7V3h6a1 1 0 011 1zM4 4h7V3H5a1 1 0 00-1 1z"></path>
  </symbol>
  <symbol fill="none" xmlns="http://www.w3.org/2000/svg" viewBox="0 0 24 24" id="easy-wipe">
    <path fill="#fff" d="M0 0h24v24H0z"></path>
    <path d="M10.84 8.556c0-.307.255-.556.568-.556.314 0 .568.249.568.556v4.302a.142.142 0 00.284 0V9.111c0-.307.255-.555.569-.555a.56.56 0 01.567.555v3.657a.232.232 0 00.421.135l1.013-1.41a.665.665 0 01.842-.16c.283.16.402.498.28.794l-1.034 2.805a1.642 1.642 0 00-.101.568c0 1.38-1.145 2.5-2.557 2.5h-1.704C9.144 18 8 16.88 8 15.5v-5.278c0-.307.254-.555.568-.555.314 0 .568.248.568.555v2.636a.142.142 0 00.284 0V9.111c0-.307.254-.555.568-.555.314 0 .568.248.568.555v3.747a.142.142 0 00.284 0V8.556z" fill="currentColor"></path>
    <path d="M7 18h.788a.462.462 0 100-.923h-.63a.3.3 0 01-.3-.3V7.223a.3.3 0 01.3-.3h9.685a.3.3 0 01.3.3v9.554a.3.3 0 01-.3.3h-.631a.462.462 0 000 .923H17a1 1 0 001-1V7a1 1 0 00-1-1H7a1 1 0 00-1 1v10a1 1 0 001 1z" fill="currentColor"></path>
    <path d="M3 12l2-2M3 7l4-4m4 2l2-2" stroke="currentColor" stroke-linecap="round"></path>
  </symbol>
  <symbol fill="none" xmlns="http://www.w3.org/2000/svg" viewBox="0 0 24 24" id="embossed">
    <path fill="#fff" d="M0 0h24v24H0z"></path>
    <path d="M12 3a2.25 2.25 0 012.25 2.25V7.5a.5.5 0 01-.5.5h-3.5a.5.5 0 01-.5-.5V5.25A2.25 2.25 0 0112 3zm1.75 5.5V10a1.5 1.5 0 01-1.5 1.5h-.5a1.5 1.5 0 01-1.5-1.5V8.5h3.5zm-2 3.5h.5v5.75a.25.25 0 11-.5 0V12z" fill="currentColor"></path>
    <path fill-rule="evenodd" clip-rule="evenodd" d="M9 17H3v4h18v-4h-6v2H9v-2z" fill="currentColor"></path>
    <path d="M10 16l-2-2m1-1l-1-1m6 4l1-1" stroke="currentColor" stroke-width=".5" stroke-linecap="round"></path>
  </symbol>
  <symbol fill="none" xmlns="http://www.w3.org/2000/svg" viewBox="0 0 24 24" id="fire-retardant">
    <path fill="#fff" d="M0 0h24v24H0z"></path>
    <circle cx="12" cy="12" r="9.5" stroke="currentColor"></circle>
    <path stroke="currentColor" d="M5.353 5.146l13.5 13.5"></path>
    <path fill-rule="evenodd" clip-rule="evenodd" d="M16.942 14.941c.127-.835.05-1.71-.265-2.53-.378-1.074-1.13-1.756-1.863-2.421-1.168-1.06-2.287-2.076-1.769-4.564.063-.3-.231-.532-.469-.375-1.07.689-1.998 1.704-2.537 2.987l6.903 6.903zm-7.38-3.88l6.306 6.306a4.64 4.64 0 01-.266.294c-1.181 1.181-2.826 1.489-4.345 1.277-1.063-.15-4.02-1.325-4.257-5.148 0-1.727.431-2.874.856-3.585.182-.293.607-.123.57.233-.1.962.018 2.307 1.15 3.243.243.205.581-.09.468-.403a8.398 8.398 0 01-.482-2.217z" fill="currentColor"></path>
  </symbol>
  <symbol fill="none" xmlns="http://www.w3.org/2000/svg" viewBox="0 0 24 24" id="french-door">
    <rect x="3.5" y="3.5" width="7.5" height="17" rx=".5" stroke="currentColor"></rect>
    <rect x="13" y="3.5" width="7.5" height="17" rx=".5" stroke="currentColor"></rect>
    <rect x="14.5" y="11" width="2" height="1" rx=".5" fill="currentColor"></rect>
    <rect x="7.5" y="11" width="2" height="1" rx=".5" fill="currentColor"></rect>
  </symbol>
  <symbol fill="none" xmlns="http://www.w3.org/2000/svg" viewBox="0 0 24 24" id="guarantee">
    <path d="M7 12.53l3.54 3.54 5.66-5.66L14.77 9l-4.24 4.24-2.12-2.12L7 12.53z" fill="currentColor"></path>
    <path fill-rule="evenodd" clip-rule="evenodd" d="M21.732 11.675a.5.5 0 010 .64l-1.818 2.178a.5.5 0 00-.115.364l.254 2.881a.5.5 0 01-.382.53l-2.65.633a.5.5 0 00-.32.24l-1.386 2.452a.5.5 0 01-.64.21l-2.47-1.114a.5.5 0 00-.412 0l-2.468 1.122a.5.5 0 01-.642-.21l-1.385-2.45a.5.5 0 00-.32-.24l-2.65-.633a.5.5 0 01-.382-.53l.254-2.89a.5.5 0 00-.115-.365l-1.818-2.178a.5.5 0 01-.001-.64l1.82-2.187a.5.5 0 00.114-.364l-.254-2.88a.5.5 0 01.384-.53l2.648-.625a.5.5 0 00.32-.24l1.386-2.451a.5.5 0 01.64-.21l2.47 1.114a.5.5 0 00.411 0l2.47-1.114a.5.5 0 01.64.21l1.386 2.451a.5.5 0 00.32.24l2.65.633a.5.5 0 01.382.53l-.254 2.881a.5.5 0 00.115.364l1.818 2.178zm-3.814 2.542a.5.5 0 01.114-.364l1.282-1.537a.5.5 0 000-.641l-1.282-1.537a.5.5 0 01-.114-.365l.18-2.03a.5.5 0 00-.383-.53l-1.858-.442a.5.5 0 01-.32-.24l-.967-1.715a.5.5 0 00-.642-.21l-1.723.78a.5.5 0 01-.41 0l-1.725-.772a.5.5 0 00-.64.21l-.968 1.715a.5.5 0 01-.322.241l-1.854.434a.5.5 0 00-.384.531l.18 2.02a.5.5 0 01-.114.363l-1.284 1.546a.5.5 0 00.002.64l1.28 1.53a.5.5 0 01.115.364l-.18 2.04a.5.5 0 00.383.53l1.858.442a.5.5 0 01.32.24l.967 1.715a.5.5 0 00.642.21l1.723-.78a.5.5 0 01.412 0l1.722.78a.5.5 0 00.642-.21l.968-1.715a.5.5 0 01.32-.24l1.857-.442a.5.5 0 00.383-.531l-.18-2.03z" fill="currentColor"></path>
  </symbol>
  <symbol fill="none" xmlns="http://www.w3.org/2000/svg" viewBox="0 0 24 24" id="heart">
    <path d="M12.168 21.198a.25.25 0 01-.336 0L10.55 20.03C5.4 15.36 2 12.28 2 8.5 2 5.42 4.42 3 7.5 3c1.639 0 3.216.719 4.304 1.871a.27.27 0 00.392 0C13.284 3.72 14.861 3 16.5 3 19.58 3 22 5.42 22 8.5c0 3.78-3.4 6.86-8.55 11.54l-1.282 1.158z" fill="currentColor"></path>
  </symbol>
  <symbol fill="none" xmlns="http://www.w3.org/2000/svg" viewBox="0 0 24 24" id="help">
    <circle cx="12" cy="12" r="9.25" stroke="currentColor" stroke-width="1.5"></circle>
    <path d="M11 17.5a.5.5 0 00.5.5h1a.5.5 0 00.5-.5v-1a.5.5 0 00-.5-.5h-1a.5.5 0 00-.5.5v1zM12 6a4 4 0 00-3.97 3.501c-.033.274.194.499.47.499h1c.276 0 .494-.227.562-.495A2.008 2.008 0 0112 8c1.1 0 2 .9 2 2 0 1.891-2.682 1.77-2.974 4.5-.03.274.198.5.474.5h1c.276 0 .493-.228.553-.497C13.454 12.697 16 12.303 16 10c0-2.21-1.79-4-4-4z" fill="currentColor"></path>
  </symbol>
  <symbol fill="none" xmlns="http://www.w3.org/2000/svg" viewBox="0 0 24 24" id="info">
    <path d="M11 7.5a.5.5 0 01.5-.5h1a.5.5 0 01.5.5v1a.5.5 0 01-.5.5h-1a.5.5 0 01-.5-.5v-1zm0 4a.5.5 0 01.5-.5h1a.5.5 0 01.5.5v5a.5.5 0 01-.5.5h-1a.5.5 0 01-.5-.5v-5zM12 2C6.48 2 2 6.48 2 12s4.48 10 10 10 10-4.48 10-10S17.52 2 12 2zm0 18c-4.41 0-8-3.59-8-8s3.59-8 8-8 8 3.59 8 8-3.59 8-8 8z" fill="currentColor"></path>
  </symbol>
  <symbol fill="none" xmlns="http://www.w3.org/2000/svg" viewBox="0 0 24 24" id="install">
    <rect x="2.061" y="18.617" width="11.5" height="4.5" rx="2.25" transform="rotate(-45 2.06 18.617)" stroke="currentColor" stroke-width="1.5"></rect>
    <path fill="#C4C4C4" stroke="currentColor" stroke-width=".75" d="M11.607 11.723l6.54-6.541.531.53-6.54 6.54z"></path>
    <rect x="5.242" y="18.087" width="6.25" height=".75" rx=".375" transform="rotate(-45 5.242 18.087)" fill="#C4C4C4" stroke="currentColor" stroke-width=".75"></rect>
    <path d="M19.998 2.93a.694.694 0 01.93.931l-1.19 2.382-2.121-2.121 2.381-1.191z" fill="currentColor"></path>
  </symbol>
  <symbol fill="none" xmlns="http://www.w3.org/2000/svg" viewBox="0 0 24 24" id="klarna">
    <path d="M19.265 15.413c-.958 0-1.735.803-1.735 1.794 0 .99.777 1.793 1.735 1.793.958 0 1.735-.803 1.735-1.793 0-.99-.777-1.794-1.735-1.794zM4 18.802h3.064V5H4v13.802zM14.715 5c0 2.988-1.126 5.768-3.134 7.834l4.235 5.968h-3.784L7.43 12.316l1.188-.92c1.97-1.525 3.1-3.856 3.1-6.396h2.997z" fill="currentColor"></path>
  </symbol>
  <symbol fill="none" xmlns="http://www.w3.org/2000/svg" viewBox="0 0 29 16" id="klarna-black">
    <g clip-path="url(#clip0)">
      <path d="M26.035 0H2.765A2.765 2.765 0 000 2.765v10.47A2.765 2.765 0 002.765 16h23.27a2.765 2.765 0 002.765-2.765V2.765A2.765 2.765 0 0026.035 0z" fill="currentColor"></path>
      <path d="M26.108 9.374a.685.685 0 00-.682.688c0 .38.305.689.682.689a.685.685 0 00.682-.689.685.685 0 00-.682-.688zm-2.245-.533c0-.52-.44-.942-.985-.942-.544 0-.985.422-.985.942s.441.943.985.943.985-.422.985-.943zm.004-1.831h1.087v3.663h-1.087v-.234a1.894 1.894 0 01-1.078.335 1.925 1.925 0 01-1.915-1.933c0-1.067.857-1.933 1.915-1.933.4 0 .77.124 1.078.336V7.01zm-8.699.477V7.01h-1.113v3.663h1.116v-1.71c0-.577.62-.888 1.05-.888h.012V7.01c-.441 0-.847.19-1.065.477zM12.396 8.84c0-.52-.441-.942-.985-.942s-.985.422-.985.942.44.943.985.943c.544 0 .985-.422.985-.943zm.003-1.831h1.088v3.663h-1.088v-.234a1.894 1.894 0 01-1.077.335A1.924 1.924 0 019.406 8.84c0-1.067.858-1.933 1.916-1.933.4 0 .77.124 1.077.336V7.01zm6.543-.099c-.434 0-.845.136-1.12.511V7.01H16.74v3.663h1.096V8.748c0-.557.37-.83.816-.83.477 0 .752.288.752.822v1.933h1.086v-2.33c0-.852-.672-1.432-1.548-1.432zm-11.12 3.762H8.96V5.377H7.823v5.296zm-4.997.002H4.03V5.375H2.825v5.298zm4.214-5.299a4.234 4.234 0 01-1.233 3.007l1.666 2.292H5.984l-1.81-2.49.467-.354A3.052 3.052 0 005.86 5.376h1.179z" fill="#fff"></path>
    </g>
    <defs>
      <clipPath id="clip0">
        <path fill="#fff" d="M0 0h28.8v16H0z"></path>
      </clipPath>
    </defs>
  </symbol>
  <symbol fill="none" xmlns="http://www.w3.org/2000/svg" viewBox="0 0 24 24" id="mail">
    <path d="M20 5H4a1 1 0 00-1 1v12a1 1 0 001 1h16a1 1 0 001-1V6a1 1 0 00-1-1z" stroke="currentColor" stroke-width="1.3"></path>
    <path d="M3.5 5.5l8.246 4.85a.5.5 0 00.508 0L20.5 5.5" stroke="currentColor" stroke-width="1.3"></path>
  </symbol>
  <symbol fill="none" xmlns="http://www.w3.org/2000/svg" viewBox="0 0 24 24" id="measure">
    <path d="M4 21a1 1 0 01-1-1v-1.264h2V21H4z" fill="currentColor"></path>
    <path d="M3 16.736V15h2v-2.264H3V11h2V8.236H3v-1.5h2V4.5H3v-.764c.5-.5.5-.5 1-.5h1.5s.5-.052.5.5v14h14v3h-1.5v-2h-2v2H15v-2h-2.5v2H11v-2H8.5v2H7v-2H5v-2H3z" fill="currentColor"></path>
    <path d="M15.071 7l2 2-6 6h-2v-2l6-6zm1-1l2 2-.5.5-2-2 .5-.5z" fill="currentColor"></path>
  </symbol>
  <symbol fill="none" xmlns="http://www.w3.org/2000/svg" viewBox="0 0 24 24" id="measuresure-guarantee">
    <path d="M11.5 3L4 6.273v4.909c0 4.54 3.2 8.787 7.5 9.818 4.3-1.03 7.5-5.277 7.5-9.818v-4.91L11.5 3z" stroke="currentColor" stroke-width="1.5"></path>
    <path d="M10.56 16.218l-2.383-2.384a.25.25 0 010-.354l5.303-5.303a.25.25 0 01.354 0l2.384 2.384a.25.25 0 010 .353l-5.304 5.304a.25.25 0 01-.353 0z" stroke="currentColor" stroke-width="1.3"></path>
    <path d="M9.677 12.505l.707.707m2.121-3.535l.707.707m-2.121.707l.707.707" stroke="currentColor"></path>
  </symbol>
  <symbol fill="none" xmlns="http://www.w3.org/2000/svg" viewBox="0 0 25 24" id="menu">
    <path d="M3.5 18.5a.5.5 0 00.5.5h17a.5.5 0 00.5-.5v-1a.5.5 0 00-.5-.5H4a.5.5 0 00-.5.5v1zm0-6a.5.5 0 00.5.5h17a.5.5 0 00.5-.5v-1a.5.5 0 00-.5-.5H4a.5.5 0 00-.5.5v1zM4 5a.5.5 0 00-.5.5v1A.5.5 0 004 7h17a.5.5 0 00.5-.5v-1A.5.5 0 0021 5H4z" fill="currentColor"></path>
  </symbol>
  <symbol fill="none" xmlns="http://www.w3.org/2000/svg" viewBox="0 0 24 24" id="no-drill">
    <path fill="#fff" d="M0 0h24v24H0z"></path>
    <circle cx="12" cy="12" r="9.5" stroke="currentColor"></circle>
    <path stroke="currentColor" d="M5.354 5.146l13.5 13.5"></path>
    <path fill-rule="evenodd" clip-rule="evenodd" d="M14 12l-1.5-1.5v-2H14a1.5 1.5 0 011.5 1.5v.5A1.5 1.5 0 0114 12zm-2-2l-2-2h1.5a.5.5 0 01.5.5V10zM6.596 8.096L11 12.5H7.25a2.25 2.25 0 01-.654-4.404zM7.5 13h2v2a1 1 0 11-2 0v-2zm11.25-3H16v.5h2.75a.25.25 0 100-.5z" fill="currentColor"></path>
  </symbol>
  <symbol fill="none" xmlns="http://www.w3.org/2000/svg" viewBox="0 0 24 24" id="perfect-fit-blinds">
    <path stroke="currentColor" d="M4.5 2.5h15v19h-15z"></path>
    <path stroke="currentColor" d="M6.5 4.5h11v15h-11z"></path>
    <rect x="8" y="7" width="8" height="1" rx=".5" fill="currentColor"></rect>
    <path fill="currentColor" d="M7 5h10v1H7z"></path>
    <rect x="8" y="9" width="8" height="1" rx=".5" fill="currentColor"></rect>
    <rect x="8" y="11" width="8" height="1" rx=".5" fill="currentColor"></rect>
    <rect x="8" y="13" width="8" height="1" rx=".5" fill="currentColor"></rect>
    <rect x="8" y="15" width="8" height="1" rx=".5" fill="currentColor"></rect>
    <rect x="8" y="17" width="8" height="1" rx=".5" fill="currentColor"></rect>
  </symbol>
  <symbol fill="none" xmlns="http://www.w3.org/2000/svg" viewBox="0 0 24 24" id="phone">
    <path d="M21 16.35a1 1 0 00-.885-.992l-3.905-.452a1 1 0 00-.822.286L13.21 17.37a15.045 15.045 0 01-6.59-6.59l2.188-2.188a1 1 0 00.286-.822l-.451-3.885A1 1 0 007.649 3H3.975c-.53 0-.972.414-.973.944-.029 9.435 7.619 17.083 17.054 17.054.53-.001.944-.443.944-.973v-3.674z" fill="currentColor"></path>
  </symbol>
  <symbol fill="none" xmlns="http://www.w3.org/2000/svg" viewBox="0 0 24 24" id="privacy">
    <path fill="#fff" d="M0 0h24v24H0z"></path>
    <circle cx="12" cy="12" r="9.5" stroke="currentColor"></circle>
    <path stroke="currentColor" d="M5.354 5.146l13.5 13.5"></path>
    <path fill-rule="evenodd" clip-rule="evenodd" d="M14.133 12.133h4.133a.598.598 0 000-1.195h-1.789l-1.15-3.853a1.52 1.52 0 00-1.937-1.007l-1.457.478-1.456-.478a1.52 1.52 0 00-1.767.632l5.423 5.423zM7.86 9.361l2.773 2.772H5.598a.598.598 0 110-1.195h1.791L7.86 9.36zm8.827 5.327a2.185 2.185 0 00-1.462-1.463l1.462 1.463zm-3.98-.48c-.056.098-.106.2-.148.307a2.249 2.249 0 00-1.25 0 2.18 2.18 0 10.103 1.249 1.03 1.03 0 011.047 0A2.182 2.182 0 0015.7 17.2l-.924-.924a.991.991 0 01-1.099-.592.989.989 0 01-.057-.565l-.912-.912zM8.726 16.13a.987.987 0 101.091-1.645.987.987 0 00-1.09 1.645z" fill="currentColor"></path>
  </symbol>
  <symbol fill="none" xmlns="http://www.w3.org/2000/svg" viewBox="0 0 24 24" id="returns">
    <path fill-rule="evenodd" clip-rule="evenodd" d="M20.54 5.23l-1.39-1.68C18.88 3.21 18.47 3 18 3H6c-.47 0-.88.21-1.16.55L3.46 5.23C3.17 5.57 3 6.02 3 6.5V19c0 1.1.9 2 2 2h14c1.1 0 2-.9 2-2V6.5c0-.48-.17-.93-.46-1.27zM6.24 4.5H11V6H5l1.24-1.5zM13 6V4.5h4.76L19.15 6H13zM4.5 19.5v-12h15v12h-15z" fill="currentColor"></path>
    <path d="M9 12h4a2 2 0 012 2v0a2 2 0 01-2 2h-1" stroke="currentColor" stroke-width="1.5"></path>
    <path d="M11 10l-2 2 2 2" stroke="currentColor" stroke-width="1.5"></path>
  </symbol>
  <symbol fill="none" xmlns="http://www.w3.org/2000/svg" viewBox="0 0 24 24" id="roller-blinds">
    <path fill="currentColor" d="M4 5h16v14H4zm0 15h16a1 1 0 01-1 1H5a1 1 0 01-1-1zM20 4H4a1 1 0 011-1h14a1 1 0 011 1z"></path>
  </symbol>
  <symbol fill="none" xmlns="http://www.w3.org/2000/svg" viewBox="0 0 24 24" id="roman-blinds">
    <path fill="currentColor" d="M4 5h16v4H4zm0 5h16v5H4zm0 6h16v6H4zM20 4H4a1 1 0 011-1h14a1 1 0 011 1z"></path>
  </symbol>
  <symbol fill="none" xmlns="http://www.w3.org/2000/svg" viewBox="0 0 24 24" id="roof-skylight">
    <path d="M2.796 5.121A.5.5 0 013.28 4.5h13.938a.5.5 0 01.485.379l3.5 14a.5.5 0 01-.485.621H6.781a.5.5 0 01-.485-.379l-3.5-14z" stroke="#000"></path>
    <path d="M2.796 5.121A.5.5 0 013.28 4.5h13.938a.5.5 0 01.485.379l3.5 14a.5.5 0 01-.485.621H6.781a.5.5 0 01-.485-.379l-3.5-14zM4 10h15" stroke="currentColor"></path>
    <path d="M11 12a.5.5 0 001 0h-1zm0-2v2h1v-2h-1z" fill="#000"></path>
  </symbol>
  <symbol fill="none" xmlns="http://www.w3.org/2000/svg" viewBox="0 0 24 24" id="ruler">
    <path fill-rule="evenodd" clip-rule="evenodd" d="M2.808 16.95a1 1 0 010-1.415L15.536 2.808a1 1 0 011.414 0l4.242 4.242a1 1 0 010 1.414L8.464 21.192a1 1 0 01-1.414 0L2.808 16.95zm4.95 2.828l-3.536-3.535 1.414-1.415 1.768 1.768.707-.707-1.768-1.768 3.536-3.535 1.768 1.768.707-.708-1.768-1.767 3.535-3.536 1.768 1.768.707-.707-1.768-1.768 1.415-1.414 3.535 3.535-12.02 12.021z" fill="currentColor"></path>
  </symbol>
  <symbol fill="none" xmlns="http://www.w3.org/2000/svg" viewBox="0 0 32 32" id="sample">
    <path fill-rule="evenodd" clip-rule="evenodd" d="M7 23.714L8.286 25l1.285-1.286L10.857 25l1.286-1.286L13.429 25l1.285-1.286L16 25l1.286-1.286L18.57 25l1.286-1.286L21.143 25l1.286-1.286L23.714 25 25 23.714l-1.286-1.285L25 21.143l-1.286-1.286L25 18.571l-1.286-1.285L25 16l-1.286-1.286L25 13.43l-1.286-1.286L25 10.857l-1.286-1.286L25 8.286 23.714 7 22.43 8.286 21.143 7l-1.286 1.286L18.571 7l-1.285 1.286L16 7l-1.286 1.286L13.43 7l-1.286 1.286L10.857 7 9.571 8.286 8.286 7 7 8.286 8.286 9.57 7 10.857l1.286 1.286L7 13.429l1.286 1.285L7 16l1.286 1.286L7 18.57l1.286 1.286L7 21.143l1.286 1.286L7 23.714zM23 9H9v14h14V9z" fill="currentColor"></path>
  </symbol>
  <symbol fill="none" xmlns="http://www.w3.org/2000/svg" viewBox="0 0 24 24" id="search">
    <path fill-rule="evenodd" clip-rule="evenodd" d="M15.1 14c.256 0 .502.102.683.283L20.49 19 19 20.49l-4.717-4.707a.966.966 0 01-.283-.684c0-.25-.097-.49-.27-.669A6.471 6.471 0 019.5 16 6.5 6.5 0 1116 9.5c0 1.61-.59 3.09-1.57 4.23.18.173.42.27.67.27zm-5.6.75a5.25 5.25 0 100-10.5 5.25 5.25 0 000 10.5z" fill="currentColor"></path>
  </symbol>
  <symbol fill="none" xmlns="http://www.w3.org/2000/svg" viewBox="0 0 24 24" id="sliding-door">
    <rect x="2.5" y="3.5" width="12" height="17" rx=".5" stroke="currentColor"></rect>
    <rect x="9.5" y="3.5" width="12" height="17" rx=".5" stroke="currentColor"></rect>
    <rect x="18" y="11" width="2" height="1" rx=".5" fill="currentColor"></rect>
    <rect x="4" y="11" width="2" height="1" rx=".5" fill="currentColor"></rect>
  </symbol>
  <symbol fill="none" xmlns="http://www.w3.org/2000/svg" viewBox="0 0 24 24" id="tapped">
    <path fill-rule="evenodd" clip-rule="evenodd" d="M2 2h3v5H2V2zm4.5 5V2h11v5h-11zM19 7h3V2h-3v5zM6.5 18h11l1 4h-13l1-4zM20 22h2l-1-4h-2l1 4zM5 18l-1 4H2l1-4h2zm1.5-5h11l1 4h-13l1-4zM20 17h2l-1-4h-2l1 4zM5 13l-1 4H2l1-4h2zm12.5-5h-11l-1 4h13l-1-4zM19 8l1 4h2l-1-4h-2zM5 8l-1 4H2l1-4h2z" fill="currentColor"></path>
  </symbol>
  <symbol fill="none" xmlns="http://www.w3.org/2000/svg" viewBox="0 0 24 24" id="thermal">
    <path fill="#fff" d="M0 0h24v24H0z"></path>
    <mask id="b" fill="#fff">
      <path fill-rule="evenodd" clip-rule="evenodd" d="M9.523 13.859c.28-.221.477-.544.477-.9V5a2 2 0 114 0v7.958c0 .357.197.68.477.9a4 4 0 11-4.954 0z"></path>
    </mask>
    <path d="M14.477 13.859l-.62.785.62-.785zm-4.954 0l-.62-.785.62.785zM9 5v7.958h2V5H9zm3-3a3 3 0 00-3 3h2a1 1 0 011-1V2zm3 3a3 3 0 00-3-3v2a1 1 0 011 1h2zm0 7.958V5h-2v7.958h2zm-1.143 1.686A2.993 2.993 0 0115 17h2a4.993 4.993 0 00-1.903-3.926l-1.24 1.57zM15 17a3 3 0 01-3 3v2a5 5 0 005-5h-2zm-3 3a3 3 0 01-3-3H7a5 5 0 005 5v-2zm-3-3c0-.955.445-1.805 1.143-2.356l-1.24-1.57A4.993 4.993 0 007 17h2zm4-4.042c0 .736.4 1.325.857 1.686l1.24-1.57a.34.34 0 01-.088-.097c-.012-.022-.009-.027-.009-.019h-2zm-4 0c0-.008.003-.003-.01.02a.34.34 0 01-.087.096l1.24 1.57c.456-.36.857-.95.857-1.686H9z" fill="currentColor" mask="url(#b)"></path>
    <path fill-rule="evenodd" clip-rule="evenodd" d="M11.625 14.083c0 .552-.424 1.002-.859 1.343a2 2 0 102.467 0c-.434-.341-.858-.79-.858-1.343V8.375a.375.375 0 00-.75 0v5.708z" fill="currentColor"></path>
  </symbol>
  <symbol fill="none" xmlns="http://www.w3.org/2000/svg" viewBox="0 0 24 24" id="tilt-and-turn-window">
    <rect x="4.5" y="2.5" width="15" height="19" rx=".5" stroke="#000"></rect>
    <path d="M2.628 6.058a.5.5 0 01.497-.558h17.75a.5.5 0 01.497.558l-1.765 15a.5.5 0 01-.496.442H4.889a.5.5 0 01-.496-.442l-1.765-15z" stroke="#000"></path>
  </symbol>
  <symbol fill="none" xmlns="http://www.w3.org/2000/svg" viewBox="0 0 24 24" id="track">
    <path d="M6.5 5.5h-3v13h3a.5.5 0 01.5.5v.5a.5.5 0 01-.5.5H2V4h4.5a.5.5 0 01.5.5V5a.5.5 0 01-.5.5z" fill="currentColor"></path>
    <path d="M6 8.5a.5.5 0 01.5-.5H7a.5.5 0 01.5.5v7a.5.5 0 01-.5.5h-.5a.5.5 0 01-.5-.5v-7zm3.5 0A.5.5 0 0110 8h.5a.5.5 0 01.5.5v8a.5.5 0 01-.5.5H10a.5.5 0 01-.5-.5v-8zm4-.5a.5.5 0 00-.5.5v8a.5.5 0 00.5.5h.5a.5.5 0 00.5-.5v-8A.5.5 0 0014 8h-.5zm3 .5A.5.5 0 0117 8h.5a.5.5 0 01.5.5v7a.5.5 0 01-.5.5H17a.5.5 0 01-.5-.5v-7z" fill="currentColor"></path>
    <path d="M20.5 18.5h-3a.5.5 0 00-.5.5v.5a.5.5 0 00.5.5H22V4h-4.5a.5.5 0 00-.5.5V5a.5.5 0 00.5.5h3v13z" fill="currentColor"></path>
  </symbol>
  <symbol fill="none" xmlns="http://www.w3.org/2000/svg" viewBox="0 0 89 20" id="trustpilot-brandmark">
    <path d="M20 7.643h-7.637L10.003 0 7.638 7.643 0 7.636l6.185 4.728L3.819 20l6.185-4.72L16.18 20l-2.359-7.636L20 7.644z" fill="#00B67A"></path>
    <path d="M14.353 14.093l-.53-1.729-3.82 2.915 4.35-1.186z" fill="#005128"></path>
    <path d="M24.008 6.443h8.809v1.615h-3.464v9.081h-1.905V8.06H24V6.442h.008zm8.432 2.951h1.629v1.495h.03c.054-.211.154-.415.3-.611a2.833 2.833 0 011.221-.944c.253-.098.514-.151.776-.151.2 0 .345.008.422.015.077.008.154.023.238.03v1.646a5.59 5.59 0 00-.376-.053 3.243 3.243 0 00-.377-.023c-.291 0-.568.06-.829.174a1.908 1.908 0 00-.676.506 2.556 2.556 0 00-.46.83c-.116.332-.17.71-.17 1.14v3.684h-1.735V9.394h.007zm12.596 7.745H43.33v-1.08h-.03a2.35 2.35 0 01-.953.937 2.64 2.64 0 01-1.29.355c-1.037 0-1.79-.25-2.25-.755-.462-.506-.692-1.268-.692-2.288V9.394h1.736v4.748c0 .68.13 1.163.4 1.442.26.28.636.423 1.113.423.368 0 .668-.053.914-.166a1.54 1.54 0 00.591-.446 1.68 1.68 0 00.33-.664c.07-.256.1-.536.1-.838V9.402h1.736v7.737zm2.957-2.483c.053.498.245.845.576 1.049.337.196.737.302 1.205.302.162 0 .346-.015.553-.038.208-.022.407-.075.584-.143.184-.068.33-.174.453-.31a.737.737 0 00.161-.528.724.724 0 00-.245-.536 1.735 1.735 0 00-.584-.34 5.933 5.933 0 00-.814-.219c-.307-.06-.614-.128-.93-.196a8.943 8.943 0 01-.936-.257 2.88 2.88 0 01-.807-.407 1.8 1.8 0 01-.568-.65c-.146-.264-.215-.588-.215-.98 0-.424.107-.77.315-1.058.207-.286.476-.513.79-.686a3.707 3.707 0 011.068-.37 6.61 6.61 0 011.122-.106c.407 0 .798.045 1.167.128s.706.22 1.006.415c.3.19.545.438.745.74.2.302.323.672.376 1.102h-1.812c-.085-.407-.269-.687-.569-.822a2.363 2.363 0 00-1.029-.212c-.122 0-.268.008-.437.03a2.43 2.43 0 00-.477.114 1.035 1.035 0 00-.376.241.578.578 0 00-.153.415.64.64 0 00.222.506c.146.128.338.234.576.325.238.083.507.158.814.219.308.06.623.128.945.196.315.068.622.158.93.256.306.099.575.234.813.408.238.174.43.385.576.642.146.256.223.581.223.958 0 .46-.107.846-.322 1.17a2.537 2.537 0 01-.83.778 3.94 3.94 0 01-1.137.438c-.414.09-.829.136-1.236.136-.5 0-.96-.053-1.382-.166a3.392 3.392 0 01-1.099-.499 2.481 2.481 0 01-.73-.838c-.176-.332-.268-.732-.283-1.192h1.75v-.015zm5.729-5.262h1.313V7.07h1.736v2.325h1.567v1.276H56.77v4.137c0 .18.008.332.023.468a.849.849 0 00.108.332.49.49 0 00.253.204c.115.045.261.068.46.068.124 0 .246 0 .37-.008a2.07 2.07 0 00.368-.053v1.321c-.192.023-.384.038-.56.06-.185.023-.37.03-.561.03-.461 0-.83-.045-1.106-.128-.277-.083-.5-.211-.653-.377a1.303 1.303 0 01-.323-.619 4.585 4.585 0 01-.1-.853v-4.567h-1.313v-1.29h-.015zm5.844 0h1.644v1.05h.03c.246-.453.584-.77 1.022-.967a3.416 3.416 0 011.421-.294c.622 0 1.16.106 1.62.325.461.21.845.505 1.153.883.307.377.53.815.683 1.313a5.4 5.4 0 01.23 1.6c0 .521-.069 1.027-.207 1.51-.138.49-.346.921-.622 1.299-.277.377-.63.671-1.06.898-.43.226-.93.34-1.513.34-.253 0-.507-.023-.76-.068a3.37 3.37 0 01-.73-.22 2.646 2.646 0 01-.645-.384c-.2-.159-.36-.34-.5-.544h-.03V20h-1.736V9.394zm6.068 3.88a3.8 3.8 0 00-.138-1.019 2.729 2.729 0 00-.415-.875 2.1 2.1 0 00-.684-.612 1.942 1.942 0 00-.944-.234c-.73 0-1.283.25-1.652.747-.368.499-.553 1.163-.553 1.993 0 .393.047.755.146 1.087.1.332.238.62.438.86.192.242.422.431.691.567.27.143.584.211.937.211.4 0 .73-.083 1.006-.241.277-.159.5-.37.676-.62a2.55 2.55 0 00.384-.867 4.72 4.72 0 00.108-.997zm3.064-6.831h1.736v1.615h-1.736V6.443zm0 2.951h1.736v7.745h-1.736V9.394zm3.287-2.951h1.736v10.696h-1.736V6.443zm7.058 10.908c-.63 0-1.19-.106-1.682-.31a3.716 3.716 0 01-1.252-.845 3.669 3.669 0 01-.775-1.291 4.906 4.906 0 01-.27-1.646c0-.589.093-1.132.27-1.63a3.67 3.67 0 01.775-1.291 3.54 3.54 0 011.252-.846 4.375 4.375 0 011.682-.309c.63 0 1.19.106 1.682.31a3.7 3.7 0 011.252.845c.338.362.599.793.776 1.29.176.499.269 1.042.269 1.631 0 .596-.093 1.148-.27 1.646a3.67 3.67 0 01-.775 1.29 3.54 3.54 0 01-1.252.846c-.491.204-1.052.31-1.682.31zm0-1.352c.384 0 .722-.083 1.006-.241a2.13 2.13 0 00.7-.627 2.79 2.79 0 00.406-.875c.085-.325.13-.657.13-.997 0-.332-.045-.657-.13-.989a2.563 2.563 0 00-.407-.875 2.108 2.108 0 00-.699-.62 2.041 2.041 0 00-1.006-.24 2.04 2.04 0 00-1.006.24c-.284.16-.515.37-.699.62a2.716 2.716 0 00-.407.875 3.98 3.98 0 00-.13.99c0 .339.046.671.13.996.085.324.223.619.407.875.184.257.415.468.7.627.283.166.621.241 1.005.241zm4.485-6.605h1.314V7.07h1.735v2.325h1.567v1.276h-1.567v4.137c0 .18.008.332.023.468a.849.849 0 00.108.332.49.49 0 00.253.204c.115.045.261.068.461.068.123 0 .246 0 .369-.008s.246-.023.368-.053v1.321c-.192.023-.384.038-.56.06-.184.023-.369.03-.56.03-.462 0-.83-.045-1.107-.128-.276-.083-.499-.211-.653-.377a1.303 1.303 0 01-.322-.619 4.585 4.585 0 01-.1-.853v-4.567h-1.313v-1.29h-.016z" fill="#191919"></path>
  </symbol>
  <symbol fill="none" xmlns="http://www.w3.org/2000/svg" viewBox="0 0 24 24" id="venetian-blinds">
    <path d="M20 7H4l1-3h14l1 3zm0 4H4l1-3h14l1 3zm0 4H4l1-3h14l1 3zm0 4H4l1-3h14l1 3z" fill="currentColor"></path>
    <path fill="currentColor" d="M7 7h1v9H7zm9 0h1v9h-1z"></path>
  </symbol>
  <symbol fill="none" xmlns="http://www.w3.org/2000/svg" viewBox="0 0 24 24" id="vertical-blinds">
    <path d="M7 4v16l-3-1V5l3-1zm4 0v16l-3-1V5l3-1zm4 0v16l-3-1V5l3-1zm4 0v16l-3-1V5l3-1z" fill="currentColor"></path>
  </symbol>
  <symbol fill="none" xmlns="http://www.w3.org/2000/svg" viewBox="0 0 24 24" id="waterproof">
    <path fill="#fff" d="M0 0h24v24H0z"></path>
    <circle cx="12" cy="12" r="9.5" stroke="currentColor"></circle>
    <path stroke="currentColor" d="M5.354 5.146l13.5 13.5"></path>
    <path fill-rule="evenodd" clip-rule="evenodd" d="M15.907 13.907c.061-.27.093-.552.093-.84 0-1.535-1.98-4.8-3.16-6.61a1 1 0 00-1.68 0 51.4 51.4 0 00-1.04 1.662l5.787 5.788zm-7.029-3.529l5.695 5.695A4.02 4.02 0 0112 17c-2.2 0-4-1.77-4-3.934 0-.66.367-1.64.878-2.688z" fill="currentColor"></path>
  </symbol>
  <symbol fill="none" xmlns="http://www.w3.org/2000/svg" viewBox="0 0 24 24" id="wooden-blinds">
    <path d="M20 7H4l1-3h14l1 3zm0 4H4l1-3h14l1 3zm0 4H4l1-3h14l1 3zm0 4H4l1-3h14l1 3z" fill="currentColor"></path>
  </symbol>
  <symbol fill="none" xmlns="http://www.w3.org/2000/svg" viewBox="0 0 32 32" id="account">
    <circle cx="15.938" cy="12" r="3.25" stroke="currentColor" stroke-width="1.5"></circle>
    <mask id="c" fill="#fff">
      <path fill-rule="evenodd" clip-rule="evenodd" d="M23.876 24H8a8.001 8.001 0 0115.876 0z"></path>
    </mask>
    <path d="M8 24l-1.488-.186-.21 1.686H8V24zm15.876 0v1.5h1.699l-.21-1.686-1.489.186zM8 25.5h15.876v-3H8v3zm1.488-1.314a6.501 6.501 0 016.45-5.686v-3c-4.846 0-8.842 3.627-9.426 8.314l2.976.372zm6.45-5.686c3.314 0 6.05 2.48 6.45 5.686l2.977-.372c-.585-4.687-4.581-8.314-9.427-8.314v3z" fill="currentColor" mask="url(#c)"></path>
  </symbol>
  <symbol fill="none" xmlns="http://www.w3.org/2000/svg" viewBox="0 0 24 24" id="allows-daylight">
    <path stroke="currentColor" d="M4.5 2.5h15v15h-15z"></path>
    <path d="M12 18v3" stroke="currentColor" stroke-width=".5"></path>
    <rect x="11" y="20" width="2" height="2" rx="1" fill="currentColor"></rect>
    <path fill="currentColor" d="M5 3.5h14v1H5zM4 17V3h1v14zM5 5h14v1H5zm0 1.5h14v1H5zM5 8h14v1H5zm0 1.5h14v1H5zM5 11h14v1H5zm0 1.5h14v1H5zM5 14h14v1H5z"></path>
    <path fill="currentColor" d="M5.5 17V3h1v14zM7 17V3h1v14zm1.5 0V3h1v14zm1.5 0V3h1v14zm1.5 0V3h1v14zm1.5 0V3h1v14zm1.5 0V3h1v14zm1.5 0V3h1v14zm1.5 0V3h1v14z"></path>
    <path fill="currentColor" d="M5 15.5h14v1H5z"></path>
  </symbol>
  <symbol fill="none" xmlns="http://www.w3.org/2000/svg" viewBox="0 0 24 24" id="arrow-left">
    <path d="M13.646 17.646a.5.5 0 00.707 0l.293-.292a.5.5 0 000-.708L9.999 12l4.647-4.646a.5.5 0 000-.708l-.293-.292a.5.5 0 00-.707 0l-5.47 5.47a.25.25 0 000 .353l5.47 5.47z" fill="currentColor"></path>
  </symbol>
  <symbol fill="none" xmlns="http://www.w3.org/2000/svg" viewBox="0 0 24 24" id="conservatory-windows">
    <path d="M13 14.5a.5.5 0 111 0 .5.5 0 01-1 0zm-3 0a.5.5 0 111 0 .5.5 0 01-1 0z" fill="currentColor"></path>
    <path d="M11.937 4.551L4.369 10.7a1 1 0 00-.369.776V20h16v-8.524a1 1 0 00-.37-.776l-7.566-6.15a.1.1 0 00-.126 0zM8 11v9m-4-9h16m-4 0v9M12 5v15" stroke="currentColor"></path>
  </symbol>
  <symbol fill="none" xmlns="http://www.w3.org/2000/svg" viewBox="0 0 24 24" id="sample-small">
    <path fill-rule="evenodd" clip-rule="evenodd" d="M3 19.714L4.286 21l1.285-1.286L6.857 21l1.286-1.286L9.429 21l1.285-1.286L12 21l1.286-1.286L14.57 21l1.286-1.286L17.143 21l1.286-1.286L19.714 21 21 19.714l-1.286-1.285L21 17.143l-1.286-1.286L21 14.571l-1.286-1.285L21 12l-1.286-1.286L21 9.43l-1.286-1.286L21 6.857l-1.286-1.286L21 4.286 19.714 3 18.43 4.286 17.143 3l-1.286 1.286L14.571 3l-1.285 1.286L12 3l-1.286 1.286L9.43 3 8.143 4.286 6.857 3 5.571 4.286 4.286 3 3 4.286 4.286 5.57 3 6.857l1.286 1.286L3 9.429l1.286 1.285L3 12l1.286 1.286L3 14.57l1.286 1.286L3 17.143l1.286 1.286L3 19.714zM19 5H5v14h14V5z" fill="currentColor"></path>
  </symbol>
  <symbol fill="none" xmlns="http://www.w3.org/2000/svg" viewBox="0 0 24 25" id="facebook">
    <g clip-path="url(#clipfacebook)">
      <path d="M12 1.042c-6.627 0-12 5.373-12 12 0 5.944 4.326 10.867 9.999 11.82v-9.316H7.104v-3.353h2.895V9.721c0-2.868 1.752-4.431 4.31-4.431 1.226 0 2.28.091 2.585.131V8.42H15.12c-1.391 0-1.66.662-1.66 1.632v2.14h3.32l-.432 3.352H13.46v9.398C19.397 24.22 24 19.172 24 13.04c0-6.624-5.373-11.997-12-11.997z" fill="currentColor"></path>
    </g>
    <defs>
      <clipPath id="clipfacebook">
        <path fill="#fff" transform="translate(0 .992)" d="M0 0h24v24H0z"></path>
      </clipPath>
    </defs>
  </symbol>
  <symbol fill="none" xmlns="http://www.w3.org/2000/svg" viewBox="0 0 24 25" id="instagram">
    <g clip-path="url(#clipinstagram)" fill="currentColor">
      <path d="M14.297 12.992a2.297 2.297 0 11-4.594 0 2.297 2.297 0 014.594 0z"></path>
      <path d="M17.371 8.928c-.11-.3-.286-.57-.515-.792a2.133 2.133 0 00-.792-.516c-.243-.094-.608-.206-1.28-.237-.726-.033-.944-.04-2.784-.04-1.84 0-2.058.007-2.785.04-.671.03-1.036.143-1.279.237-.3.11-.57.287-.792.516a2.136 2.136 0 00-.516.792c-.094.243-.206.608-.237 1.28-.033.726-.04.944-.04 2.784 0 1.84.007 2.058.04 2.784.03.672.143 1.037.237 1.28.11.3.287.57.516.792.222.229.492.405.792.515.243.095.608.207 1.28.238.726.033.944.04 2.784.04 1.84 0 2.058-.007 2.784-.04.672-.03 1.037-.143 1.28-.238a2.282 2.282 0 001.307-1.307c.095-.243.207-.608.238-1.28.033-.726.04-.944.04-2.784 0-1.84-.007-2.058-.04-2.785-.03-.671-.143-1.036-.238-1.28zM12 16.53a3.538 3.538 0 110-7.077 3.538 3.538 0 010 7.077zm3.678-6.39a.827.827 0 110-1.653.827.827 0 010 1.653z"></path>
      <path d="M12 .992c-6.626 0-12 5.374-12 12s5.374 12 12 12 12-5.374 12-12-5.374-12-12-12zm6.85 14.84c-.034.734-.15 1.235-.321 1.674a3.524 3.524 0 01-2.015 2.015c-.439.17-.94.287-1.673.32-.735.034-.97.042-2.84.042-1.872 0-2.107-.008-2.842-.042-.733-.034-1.234-.15-1.672-.32a3.377 3.377 0 01-1.221-.795 3.377 3.377 0 01-.795-1.22c-.17-.439-.287-.94-.32-1.673-.034-.735-.042-.97-.042-2.841 0-1.871.008-2.106.042-2.84.033-.734.15-1.235.32-1.674.173-.46.444-.876.795-1.22a3.38 3.38 0 011.22-.795c.439-.17.94-.287 1.673-.32.735-.034.97-.042 2.841-.042 1.871 0 2.106.008 2.84.042.734.033 1.235.15 1.674.32.46.173.876.444 1.22.795.35.344.622.76.795 1.22.17.439.287.94.32 1.673.034.735.042.97.042 2.84 0 1.872-.008 2.107-.042 2.842z"></path>
    </g>
    <defs>
      <clipPath id="clipinstagram">
        <path fill="#fff" transform="translate(0 .992)" d="M0 0h24v24H0z"></path>
      </clipPath>
    </defs>
  </symbol>
  <symbol fill="none" xmlns="http://www.w3.org/2000/svg" viewBox="0 0 24 25" id="pinterest">
    <g clip-path="url(#clippinterest)">
      <path d="M18.023 2.602C16.185 1.53 14.177.992 12 .992c-2.177 0-4.185.537-6.024 1.61A11.949 11.949 0 001.61 6.97C.536 8.808 0 10.816 0 12.993c0 2.427.661 4.63 1.984 6.609 1.323 1.98 3.057 3.443 5.203 4.39-.041-1.114.026-2.036.204-2.765l1.546-6.531c-.26-.51-.39-1.146-.39-1.906 0-.886.224-1.626.672-2.22.447-.593.994-.89 1.64-.89.52 0 .922.172 1.203.516.282.343.422.776.422 1.296 0 .324-.06.717-.18 1.18-.12.464-.275 1-.468 1.61-.193.609-.33 1.096-.414 1.46-.146.636-.026 1.18.36 1.633.384.453.895.68 1.53.68 1.115 0 2.03-.62 2.743-1.86.713-1.239 1.07-2.744 1.07-4.515 0-1.365-.44-2.474-1.32-3.328-.88-.854-2.107-1.282-3.68-1.282-1.76 0-3.185.566-4.273 1.696-1.089 1.13-1.633 2.482-1.633 4.054 0 .938.266 1.724.797 2.36.177.208.234.432.172.671a8.654 8.654 0 00-.125.469c-.063.25-.104.412-.125.484-.084.334-.281.438-.594.313-.802-.334-1.412-.911-1.828-1.734-.417-.823-.625-1.776-.625-2.86 0-.698.112-1.396.336-2.093a7.14 7.14 0 011.047-2.024A8.228 8.228 0 016.977 6.68c.661-.5 1.466-.901 2.414-1.204a10.04 10.04 0 013.063-.453c1.479 0 2.807.328 3.984.984 1.177.657 2.076 1.506 2.695 2.547.62 1.042.93 2.156.93 3.344 0 1.563-.271 2.97-.812 4.22-.542 1.25-1.308 2.231-2.297 2.945-.99.713-2.115 1.07-3.376 1.07a3.696 3.696 0 01-1.78-.446c-.553-.297-.933-.648-1.142-1.054-.468 1.843-.75 2.943-.843 3.296-.199.74-.605 1.594-1.22 2.563 1.115.333 2.25.5 3.407.5 2.177 0 4.185-.537 6.023-1.61a11.95 11.95 0 004.368-4.367C23.463 17.177 24 15.17 24 12.992c0-2.178-.537-4.185-1.61-6.024a11.955 11.955 0 00-4.367-4.366z" fill="currentColor"></path>
    </g>
    <defs>
      <clipPath id="clippinterest">
        <path fill="#fff" transform="translate(0 .992)" d="M0 0h24v24H0z"></path>
      </clipPath>
    </defs>
  </symbol>
  <symbol fill="none" xmlns="http://www.w3.org/2000/svg" viewBox="0 0 24 25" id="twitter">
    <path fill-rule="evenodd" clip-rule="evenodd" d="M12 24.992c6.627 0 12-5.373 12-12s-5.373-12-12-12-12 5.373-12 12 5.373 12 12 12zm5.487-14.288c0-.119-.003-.238-.008-.356a5.598 5.598 0 001.374-1.426 5.493 5.493 0 01-1.582.434 2.765 2.765 0 001.212-1.524 5.524 5.524 0 01-1.75.669 2.755 2.755 0 00-4.694 2.512 7.82 7.82 0 01-5.676-2.878 2.752 2.752 0 00.853 3.677 2.735 2.735 0 01-1.248-.345v.036c0 1.333.949 2.447 2.21 2.7a2.758 2.758 0 01-1.245.047 2.758 2.758 0 002.573 1.913 5.527 5.527 0 01-4.078 1.14 7.796 7.796 0 004.222 1.238c5.067 0 7.837-4.197 7.837-7.837z" fill="currentColor"></path>
  </symbol>
  <symbol fill="none" xmlns="http://www.w3.org/2000/svg" viewBox="0 0 24 25" id="youtube">
    <g clip-path="url(#clipyoutube)" fill="currentColor">
      <path d="M10.505 15.24l3.904-2.248-3.904-2.248v4.496z"></path>
      <path d="M12 .992c-6.626 0-12 5.374-12 12s5.374 12 12 12 12-5.374 12-12-5.374-12-12-12zm7.498 12.012s0 2.434-.309 3.607a1.88 1.88 0 01-1.321 1.322c-1.174.309-5.868.309-5.868.309s-4.682 0-5.868-.321a1.88 1.88 0 01-1.321-1.322c-.31-1.161-.31-3.607-.31-3.607s0-2.434.31-3.607A1.917 1.917 0 016.132 8.05C7.306 7.74 12 7.74 12 7.74s4.694 0 5.868.322a1.88 1.88 0 011.322 1.322c.32 1.174.308 3.62.308 3.62z"></path>
    </g>
    <defs>
      <clipPath id="clipyoutube">
        <path fill="#fff" transform="translate(0 .992)" d="M0 0h24v24H0z"></path>
      </clipPath>
    </defs>
  </symbol>
  <symbol fill="none" xmlns="http://www.w3.org/2000/svg" viewBox="0 0 24 24" id="ok-circle">
    <path d="M12 2C6.48 2 2 6.48 2 12s4.48 10 10 10 10-4.48 10-10S17.52 2 12 2zm0 18c-4.41 0-8-3.59-8-8s3.59-8 8-8 8 3.59 8 8-3.59 8-8 8zm4.944-12.064a.5.5 0 00-.709-.001l-6.164 6.164a.1.1 0 01-.142 0l-2.165-2.157a.5.5 0 00-.707 0l-.703.704a.5.5 0 000 .708l3.292 3.292a.5.5 0 00.708 0l7.294-7.294a.5.5 0 000-.706l-.704-.71z" fill="currentColor"></path>
  </symbol>
  <symbol fill="none" xmlns="http://www.w3.org/2000/svg" viewBox="0 0 24 24" id="order-online">
    <rect x="5.685" y=".57" width="12.63" height="20.36" rx="6.315" stroke="currentColor" stroke-width=".973"></rect>
    <path fill="currentColor" d="M6.159 7.868h11.673v.973H6.159z"></path>
    <path d="M11.51 8.355V1.059h.972v7.296h-.973z" fill="currentColor"></path>
    <path d="M12.039 20.438v0a2.692 2.692 0 002.692 2.691h.226" stroke="currentColor" stroke-width=".973"></path>
  </symbol>
  <symbol fill="none" xmlns="http://www.w3.org/2000/svg" viewBox="0 0 24 24" id="error-circle">
    <path fill-rule="evenodd" clip-rule="evenodd" d="M20 12a8 8 0 11-16 0 8 8 0 0116 0zm2 0c0 5.523-4.477 10-10 10S2 17.523 2 12 6.477 2 12 2s10 4.477 10 10zm-5.22-4.388a.5.5 0 010 .707l-3.676 3.677 3.676 3.676a.5.5 0 010 .707l-.4.401a.5.5 0 01-.708 0l-3.676-3.676L8.32 16.78a.5.5 0 01-.707 0l-.401-.401a.5.5 0 010-.707l3.676-3.676L7.212 8.32a.5.5 0 010-.707l.401-.401a.5.5 0 01.707 0l3.676 3.675 3.676-3.676a.5.5 0 01.707 0l.401.401z" fill="currentColor"></path>
  </symbol>
  <symbol fill="none" xmlns="http://www.w3.org/2000/svg" viewBox="0 0 27 27" id="klarna-alt">
    <g clip-path="url(#klarna-alt-clip0)">
      <path d="M24.003 6.33H2.997A2.497 2.497 0 00.5 8.827v9.45a2.497 2.497 0 002.497 2.497h21.006a2.497 2.497 0 002.497-2.496V8.827a2.497 2.497 0 00-2.497-2.497z" fill="#0A0B09"></path>
      <path d="M24.07 14.792a.619.619 0 00-.616.622c0 .343.276.621.616.621.34 0 .616-.278.616-.621a.619.619 0 00-.616-.622zm-2.026-.48c0-.47-.398-.851-.89-.851-.49 0-.889.38-.889.85s.398.852.89.852c.49 0 .889-.381.889-.851zm.003-1.654h.981v3.307h-.981v-.211a1.71 1.71 0 01-.973.303c-.955 0-1.73-.781-1.73-1.745 0-.964.775-1.745 1.73-1.745.361 0 .696.112.973.303v-.212zm-7.853.43v-.43h-1.005v3.307h1.007v-1.544c0-.52.56-.8.948-.8h.012v-.963c-.399 0-.765.173-.962.43zm-2.503 1.224c0-.47-.398-.851-.89-.851-.49 0-.888.38-.888.85s.398.852.889.852.89-.381.89-.851zm.003-1.654h.982v3.307h-.982v-.211a1.71 1.71 0 01-.972.303c-.956 0-1.73-.781-1.73-1.745 0-.964.774-1.745 1.73-1.745.36 0 .695.112.972.303v-.212zm5.907-.089c-.392 0-.763.123-1.011.462v-.373h-.977v3.307h.989v-1.738c0-.502.334-.749.737-.749.43 0 .679.26.679.743v1.744h.98v-2.103c0-.77-.606-1.293-1.397-1.293zM7.563 15.965H8.59v-4.78H7.563v4.78zm-4.512.002h1.087v-4.784H3.051v4.784zm3.804-4.784c0 1.036-.4 2-1.113 2.715l1.504 2.069H5.902L4.27 13.719l.421-.319c.7-.529 1.1-1.336 1.1-2.217h1.065z" fill="#fff"></path>
    </g>
    <defs>
      <clipPath id="klarna-alt-clip0">
        <path fill="#fff" transform="translate(.5 6.33)" d="M0 0h26v14.444H0z"></path>
      </clipPath>
    </defs>
  </symbol>
  <symbol fill="none" xmlns="http://www.w3.org/2000/svg" viewBox="0 0 24 25" id="link-external">
    <path d="M18 18.08a.25.25 0 01-.25.25H6.25a.25.25 0 01-.25-.25V6.58a.25.25 0 01.25-.25h5.5a.25.25 0 00.25-.25v-1.5a.25.25 0 00-.25-.25H5.778C4.79 4.33 4 5.13 4 6.108v12.444c0 .978.791 1.778 1.778 1.778h12.444c.978 0 1.778-.8 1.778-1.778V12.58a.25.25 0 00-.25-.25h-1.5a.25.25 0 00-.25.25v5.5zM14.028 4.33a.25.25 0 00-.25.25v1.5c0 .138.112.25.25.25H16.1a.25.25 0 01.178.426L11.675 11.4a.25.25 0 00.001.353l.901.901a.25.25 0 00.353 0l4.644-4.602A.25.25 0 0118 8.23v2.072c0 .138.112.25.25.25h1.5a.25.25 0 00.25-.25V4.58a.25.25 0 00-.25-.25h-5.722z" fill="currentColor"></path>
  </symbol>
  <symbol fill="none" xmlns="http://www.w3.org/2000/svg" viewBox="0 0 24 25" id="parcel">
    <path fill-rule="evenodd" clip-rule="evenodd" d="M19.15 3.88l1.39 1.68c.29.34.46.79.46 1.27v12.5c0 1.1-.9 2-2 2H5c-1.1 0-2-.9-2-2V6.83c0-.48.17-.93.46-1.27l1.38-1.68c.28-.34.69-.55 1.16-.55h12c.47 0 .88.21 1.15.55zM11 5.33H6.24l-.82 1H11v-1zm2 0v1h5.59l-.83-1H13zm-8 3v11h6v-11H5zm8 11h6v-11h-6v11z" fill="currentColor"></path>
  </symbol>
  <symbol fill="none" xmlns="http://www.w3.org/2000/svg" viewBox="0 0 24 24" id="control-right">
    <path fill-rule="evenodd" clip-rule="evenodd" d="M17 7H2l1-3h14v3zm3 8h2V4h-2v11zm1 5a1 1 0 001-1v-3h-2v3a1 1 0 001 1zM2 19h15v-3H3l-1 3zm15-4H2l1-3h14v3zM2 11h15V8H3l-1 3z" fill="currentColor"></path>
  </symbol>
  <symbol fill="none" xmlns="http://www.w3.org/2000/svg" viewBox="0 0 24 24" id="idea">
    <path d="M17.336 7.573l1.028-1.029a.364.364 0 10-.514-.514l-1.029 1.029a.364.364 0 10.515.514zm-9.793-.514L6.513 6.03A.364.364 0 006 6.544l1.028 1.029a.364.364 0 00.515-.514zm4.821-1.241V4.364a.364.364 0 10-.728 0v1.454a.364.364 0 10.728 0zm-6.546 5.455H4.364a.364.364 0 100 .727h1.454a.364.364 0 100-.727zm13.818 0h-1.454a.364.364 0 100 .727h1.454a.364.364 0 000-.727z" fill="currentColor"></path>
    <path d="M9.857 17.7h0v-.007c0-.403-.148-.838-.325-1.244a18.146 18.146 0 00-.65-1.29l-.006-.011s0 0 0 0c-.297-.555-.598-1.117-.826-1.683-.23-.567-.371-1.104-.371-1.601v-.144A4.327 4.327 0 0112 7.398a4.327 4.327 0 014.322 4.322s0 0 0 0v.16c-.028.982-.573 1.997-1.187 3.117l-.006.013c-.25.456-.51.928-.696 1.364-.183.426-.334.899-.29 1.337 0 0 0 0 0 0l.05.492c-.013 1.21-.988 2.181-2.172 2.181-1.19 0-2.169-.982-2.171-2.201l.007-.483zM9 16h5.5" stroke="currentColor"></path>
  </symbol>
  <symbol fill="none" xmlns="http://www.w3.org/2000/svg" viewBox="0 0 24 24" id="payment">
    <path d="M20 4H4c-1.11 0-1.99.89-1.99 2L2 18c0 1.11.89 2 2 2h16c1.11 0 2-.89 2-2V6c0-1.11-.89-2-2-2Zm0 13.75a.25.25 0 0 1-.25.25H4.25a.25.25 0 0 1-.25-.25v-5.5a.25.25 0 0 1 .25-.25h15.5a.25.25 0 0 1 .25.25v5.5Zm0-10a.25.25 0 0 1-.25.25H4.25A.25.25 0 0 1 4 7.75v-1.5A.25.25 0 0 1 4.25 6h15.5a.25.25 0 0 1 .25.25v1.5Z" fill="#141729"></path>
  </symbol>
  <symbol fill="none" xmlns="http://www.w3.org/2000/svg" viewBox="0 0 24 24" id="receipt">
    <path d="M19.854 3.146a.5.5 0 0 1-.708 0l-.792-.792a.5.5 0 0 0-.708 0l-.792.792a.5.5 0 0 1-.708 0l-.792-.792a.5.5 0 0 0-.708 0l-.792.792a.5.5 0 0 1-.708 0l-.792-.792a.5.5 0 0 0-.708 0l-.792.792a.5.5 0 0 1-.708 0l-.792-.792a.5.5 0 0 0-.708 0l-.792.792a.5.5 0 0 1-.708 0l-.292-.292A.5.5 0 0 0 6 3.207V16H3v3c0 1.66 1.34 3 3 3h12c1.66 0 3-1.34 3-3V3.207a.5.5 0 0 0-.854-.353l-.292.292ZM19 19c0 .55-.45 1-1 1s-1-.45-1-1v-3H8V5h11v14Z" fill="#141729"></path>
    <path d="M15 7H9v2h6V7ZM18 7h-2v2h2V7ZM15 10H9v2h6v-2ZM18 10h-2v2h2v-2Z" fill="#141729"></path>
  </symbol>
  <symbol fill="none" xmlns="http://www.w3.org/2000/svg" viewBox="0 0 24 24" id="next-day-dispatch">
    <path d="M21 17v.5h.5V17H21Zm-6-7.5h3v-1h-3v1Zm5.5 2.5v5h1v-5h-1Zm.5 4.5h-2.5v1H21v-1Zm-3-7a2.5 2.5 0 0 1 2.5 2.5h1A3.5 3.5 0 0 0 18 8.5v1Z" fill="currentColor"></path>
    <circle cx="16.5" cy="17.5" r="2" stroke="currentColor"></circle>
    <path d="M17 11h1a1 1 0 0 1 1 1v1h-2v-2ZM12.5 4.5a.5.5 0 0 0 0 1v-1Zm0 1H14v-1h-1.5v1Zm2 .5v10h1V6h-1Zm-.5-.5a.5.5 0 0 1 .5.5h1A1.5 1.5 0 0 0 14 4.5v1Z" fill="currentColor"></path>
    <circle cx="8.5" cy="17.5" r="2" stroke="currentColor"></circle>
    <path d="M15 17h-5" stroke="currentColor"></path>
    <path d="M4 17h-.5v.5H4V17Zm.5-2.5a.5.5 0 0 0-1 0h1Zm2.5 2H4v1h3v-1Zm-2.5.5v-2.5h-1V17h1Z" fill="currentColor"></path>
    <circle cx="6" cy="8" r="5" stroke="currentColor"></circle>
    <path d="M6.5 4.5a.5.5 0 0 0-1 0h1ZM6 8h-.5v.5H6V8Zm2 .5a.5.5 0 0 0 0-1v1Zm-2.5-4V8h1V4.5h-1Zm.5 4h2v-1H6v1Z" fill="currentColor"></path>
  </symbol>
  <symbol fill="none" xmlns="http://www.w3.org/2000/svg" viewBox="0 0 24 24" id="electric-blinds">
    <path d="M11 21h-1l1-7H7.5c-.58 0-.57-.32-.38-.66.19-.34.05-.08.07-.12C8.48 10.94 10.42 7.54 13 3h1l-1 7h3.5c.49 0 .56.33.47.51l-.07.15C12.96 17.55 11 21 11 21Z" fill="currentColor"></path>
  </symbol>
  <symbol fill="none" xmlns="http://www.w3.org/2000/svg" viewBox="0 0 24 24" id="motor">
    <path d="m18.402 16.442-.745-1.242.606-1.463 1.405-.351A.439.439 0 0 0 20 12.96v-1.92a.439.439 0 0 0-.332-.426l-1.405-.35-.606-1.464.745-1.242a.439.439 0 0 0-.066-.536l-1.358-1.358a.439.439 0 0 0-.536-.066l-1.242.745-1.463-.606-.351-1.405A.439.439 0 0 0 12.96 4h-1.92a.439.439 0 0 0-.426.332l-.35 1.405-1.465.606-1.241-.745a.439.439 0 0 0-.536.066L5.664 7.022a.439.439 0 0 0-.066.536L6.343 8.8l-.606 1.463-1.405.351A.439.439 0 0 0 4 11.04v1.92c0 .201.137.377.332.426l1.405.35.606 1.464-.745 1.242a.439.439 0 0 0 .066.536l1.358 1.358c.142.142.363.17.536.066l1.242-.745 1.463.606.351 1.405a.439.439 0 0 0 .426.332h1.92a.439.439 0 0 0 .426-.332l.35-1.405 1.464-.606 1.242.745a.439.439 0 0 0 .536-.066l1.358-1.358a.439.439 0 0 0 .066-.536Z" stroke="currentColor"></path>
    <path d="M15.474 11.994a3.474 3.474 0 1 1-6.948 0 3.474 3.474 0 0 1 6.948 0Z" stroke="currentColor"></path>
  </symbol>
  <symbol fill="none" xmlns="http://www.w3.org/2000/svg" viewBox="0 0 24 25" id="child-safe-1">
    <g clip-path="url(#childsafe)" stroke="currentColor">
      <path d="M14.667 4.64a2.666 2.666 0 1 1-5.332.001 2.666 2.666 0 0 1 5.332-.001ZM19.542 13.387l-3.137-3.067a3.177 3.177 0 0 0-2.202-.88H9.828c-.826 0-1.624.32-2.202.88l-3.192 3.067c-.579.56-.579 1.52 0 2.053.578.613 1.54.587 2.146 0l1.927-1.867v8.507c0 .8.66 1.467 1.513 1.467.826 0 1.514-.667 1.514-1.467v-3.2c0-.24.22-.453.468-.453.247 0 .467.213.467.453v3.2c0 .8.661 1.467 1.514 1.467.826 0 1.514-.667 1.514-1.467V13.6l1.926 1.867c.578.56 1.541.586 2.147 0a1.44 1.44 0 0 0-.028-2.08Z"></path>
    </g>
    <defs>
      <clipPath id="childsafe">
        <path fill="#fff" transform="translate(0 .67)" d="M0 0h24v24H0z"></path>
      </clipPath>
    </defs>
  </symbol>
  <symbol fill="none" xmlns="http://www.w3.org/2000/svg" viewBox="0 0 24 25" id="child-safe-2">
    <path d="M12 2.67a6 6 0 0 0-4.472 10L9 14.17v2l1 3.5h4l1-3.5v-2l1.472-1.5A6 6 0 0 0 12 2.67ZM9 3.67v2M12 2.67v3M15 3.67v2" stroke="currentColor"></path>
    <path d="M5 8.67h14" stroke="currentColor" stroke-linecap="round"></path>
    <path d="M13.5 21.17a1.5 1.5 0 1 1-3 0h3Z" stroke="currentColor"></path>
    <path d="M12 19.67v-7m0 0-1.5-1.5m1.5 1.5 1.5-1.5" stroke="currentColor" stroke-linecap="round"></path>
  </symbol>
</svg>