<?xml version="1.0" encoding="utf-8"?>
<!-- Generator: Adobe Illustrator 24.2.1, SVG Export Plug-In . SVG Version: 6.00 Build 0)  -->
<svg version="1.1" id="Layer_1" xmlns="http://www.w3.org/2000/svg" xmlns:xlink="http://www.w3.org/1999/xlink" x="0px" y="0px"
	 viewBox="0 0 720 720" style="enable-background:new 0 0 720 720;" xml:space="preserve">
<g>
	<path d="M0,66.8C0,46.3,0,27.2,0,7c239.8,0,479.2,0,720,0c0,9.9,0,19.8,0,29.6c0,9.9,0,19.7,0,30.2C479.5,66.8,240.3,66.8,0,66.8z"
		/>
	<path d="M13.5,713c16.4-12.3,30.8-23.3,45.7-33.9c2.5-1.8,6.6-1.7,9.9-1.7c189.5-0.1,379-0.1,568.6,0c4,0,8.8,0.6,11.9,2.7
		c14.4,10.1,28.3,20.9,44.1,32.8C466.4,713,241.3,713,13.5,713z"/>
	<path d="M520,627.6c6.3,20.9,16.2,30.4,31.6,30.9c15.6,0.4,25-8.1,33.9-31.4c18.4,0,37.1-0.1,55.9,0.1c2.5,0,5.3,1,7.3,2.5
		c14.2,10.4,28.1,21,44.4,33.2c-227.3,0-451.9,0-679.2,0c16.5-12.4,31-23.4,45.8-34c2.2-1.6,5.8-1.8,8.7-1.8
		c149.2-0.1,298.4,0,447.6,0C517.1,627.1,518.3,627.4,520,627.6z"/>
	<path d="M13.2,166.4c16.3-12.2,30.2-23,44.5-33.2c2.8-2,7.1-2.9,10.7-2.9c152.7-0.1,305.3-0.1,458-0.1c1.9,0,3.7,0.4,6.3,0.7
		c0,11.7,0,23,0,35.4C360.7,166.4,188.5,166.4,13.2,166.4z"/>
	<path d="M13.2,514.2c17-12.6,31.7-23.9,46.8-34.5c2.7-1.9,7.3-1.7,11.1-1.7c150.3-0.1,300.6-0.1,450.9,0c3.4,0,6.8,0.4,10.7,0.6
		c0,11.9,0,23.3,0,35.6C360.7,514.2,188.5,514.2,13.2,514.2z"/>
	<path d="M13.1,265.8c17.2-12.8,32-24.1,47.2-34.8c2.5-1.8,6.6-1.6,10-1.6c151.2-0.1,302.4-0.1,453.6,0c2.6,0,5.3,0.3,8.7,0.6
		c0,12,0,23.6,0,35.9C360.4,265.8,188.4,265.8,13.1,265.8z"/>
	<path d="M532.8,365.5c-173,0-345,0-520,0C29.6,353,44,341.8,58.9,331.3c2.8-2,7.3-2,11-2c150.8-0.1,301.6-0.1,452.3-0.1
		c3.4,0,6.7,0.4,10.6,0.7C532.8,341.9,532.8,353.2,532.8,365.5z"/>
	<path d="M13.5,116.5c15.9-11.9,29.9-22.7,44.2-32.9c2.8-2,7.1-2.9,10.7-2.9c152.7-0.1,305.3-0.1,458-0.1c1.9,0,3.7,0.4,6.4,0.7
		c0,11.5,0,22.9,0,35.2C360.7,116.5,188.4,116.5,13.5,116.5z"/>
	<path d="M532.5,464.9c-172.7,0-344.5,0-519.7,0c17.2-12.9,32-24.1,47.1-34.9c2.2-1.5,5.9-1.3,8.9-1.3c152.4-0.1,304.7,0,457.1,0
		c1.9,0,3.8,0.2,6.6,0.4C532.5,441.1,532.5,453,532.5,464.9z"/>
	<path d="M13.5,215.9c16.4-12.3,30.6-23.2,45.2-33.6c2.5-1.8,6.5-2.1,9.7-2.1c152.3-0.1,304.6-0.1,457-0.1c2.2,0,4.5,0.3,7.3,0.6
		c0,11.8,0,23.1,0,35.3C360.6,215.9,188.6,215.9,13.5,215.9z"/>
	<path d="M14.2,563.4c16-12,30.2-22.9,44.8-33.3c2.5-1.8,6.5-2,9.8-2C221.6,528,374.3,528,527,528c1.5,0,3,0.2,5.5,0.4
		c0,11.3,0,22.6,0,35C361,563.4,188.9,563.4,14.2,563.4z"/>
	<path d="M13.3,315.5c17-12.7,31.5-23.8,46.3-34.4c2.2-1.6,5.8-1.7,8.7-1.7c153.1-0.1,306.1-0.1,459.2,0c1.5,0,3,0.3,5.2,0.5
		c0,11.8,0,23.4,0,35.6C360.3,315.5,188.4,315.5,13.3,315.5z"/>
	<path d="M533.2,378.9c0,12.8,0,23.5,0,35.2c-172.2,0-344.1,0-518.9,0c9.5-7.1,18-12.4,25.2-19.2c14-13.2,29.9-16.6,49.1-16.5
		c143,0.8,286,0.4,429.1,0.4C522.4,378.9,527.3,378.9,533.2,378.9z"/>
	<path d="M12.3,614.4c17-12.7,31.2-23.7,45.9-34.1c2.8-2,7.2-2.3,10.9-2.3c151.5-0.1,302.9-0.1,454.4-0.1c3,0,5.9,0.5,10,0.8
		c0,7,0.4,13.4-0.1,19.8c-0.6,8.4-9.8,16.2-18.4,16.2c-164.5,0-329,0-493.5,0C19.6,614.8,17.8,614.7,12.3,614.4z"/>
	<path d="M557.2,595.8c-3.2,0-6.2,0-10,0c0-171.4,0-342.6,0-514.5c3.2,0,6.2,0,10,0C557.2,252.8,557.2,424.1,557.2,595.8z"/>
	<path d="M571.5,130.4c24.5,0,48.6-0.2,72.7,0.3c3.3,0.1,6.7,3.4,9.7,5.7c12.9,9.5,25.6,19.2,40.4,30.3c-42.6,0-82.5,0-122.8,0
		C571.5,154.5,571.5,143.1,571.5,130.4z"/>
	<path d="M693.8,265.9c-42.3,0-81.8,0-122.1,0c0-12.1,0-23.7,0-36.5c24,0,47.7,0,71.3,0.1c1.8,0,3.7,1,5.2,2.1
		C662.8,242.4,677.3,253.4,693.8,265.9z"/>
	<path d="M694.3,514.7c-42.9,0-82.2,0-122.5,0c0-12,0-23.6,0-36.6c23.7,0,47.3,0,71,0.1c1.8,0,3.8,0.9,5.3,2
		C662.8,491,677.4,502,694.3,514.7z"/>
	<path d="M694,116.9c-42.3,0-82,0-122.3,0c0-11.8,0-23.1,0-36.4c10.5,0,21.2,1.1,31.5-0.2c30.1-4,55.6,4.1,76.8,25.9
		C683.5,109.7,687.9,112.2,694,116.9z"/>
	<path d="M694.3,365.6c-42.5,0-82.2,0-122.6,0c0-11.8,0-23.1,0-36.4c12.1,0,24.3,1.2,36.2-0.2c26.8-3.2,49.6,3.8,68.7,23.1
		C681.1,356.6,686.8,360,694.3,365.6z"/>
	<path d="M571.9,428.7c23.5,0,46.1-0.1,68.6,0.1c2.9,0,6.2,0.8,8.5,2.5c14.2,10.3,28.2,20.9,44.3,33.1c-41.9,0-81.2,0-121.4,0
		C571.9,453.2,571.9,441.7,571.9,428.7z"/>
	<path d="M571.5,563.6c0-12.1,0-23.1,0-35.5c24.4,0,48.4-0.1,72.4,0.2c2.3,0,4.8,2.1,6.9,3.6c13.5,10,26.8,20.1,42.3,31.7
		C651.1,563.6,611.7,563.6,571.5,563.6z"/>
	<path d="M693.7,216.1c-42.8,0-82.1,0-122.1,0c0-11.9,0-23.2,0-36c24.2,0,48.2-0.2,72.2,0.2c3,0,6.1,2.9,8.8,4.9
		C665.6,194.8,678.4,204.6,693.7,216.1z"/>
	<path d="M692.9,414.6c-42.1,0-81.3,0-121.2,0c0-11.6,0-22.5,0-35.7c9.5,0,19.4,1.2,28.9-0.2c32.1-4.6,59.2,4.7,81.9,27.6
		C684.9,408.7,687.8,410.6,692.9,414.6z"/>
	<path d="M571.6,315.2c0-11.8,0-23.1,0-35.8c24.2,0,48.2-0.2,72.2,0.2c3,0.1,6,3,8.8,5c12.8,9.5,25.6,19.2,40.6,30.5
		C651,315.2,611.6,315.2,571.6,315.2z"/>
	<path d="M571.4,578.1c24.6,0,48.2,0,71.8,0.1c1.8,0,3.8,0.8,5.3,1.8c14.7,10.8,29.2,21.8,46.6,34.9c-24.5,0-45.7,0-66.8,0
		c-9.9,0-19.9,0-29.8,0c-22.6,0-27.7-5.3-27.4-28C571,584.5,571.2,582.3,571.4,578.1z"/>
	<path d="M552.6,608.8c9.9,0.1,18,8.3,18,18.4c0,10.3-7.6,18.1-17.9,18.2c-10.8,0.2-19-8-18.7-18.7
		C534.3,616.7,542.6,608.7,552.6,608.8z"/>
</g>
</svg>
