<?xml version="1.0" encoding="utf-8"?>
<!-- Svg Vector Icons : http://www.onlinewebfonts.com/icon -->
<!DOCTYPE svg PUBLIC "-//W3C//DTD SVG 1.1//EN" "http://www.w3.org/Graphics/SVG/1.1/DTD/svg11.dtd">
<svg version="1.1" xmlns="http://www.w3.org/2000/svg" xmlns:xlink="http://www.w3.org/1999/xlink" x="0px" y="0px" viewBox="0 0 1000 1000" enable-background="new 0 0 1000 1000" xml:space="preserve">
<metadata> Svg Vector Icons : http://www.onlinewebfonts.com/icon </metadata>
<g><g><path d="M386,536.9h90.3c196.2,0,307.6-88.4,343-270c1.1-6,2.2-11.8,3-17.5c2-12.3,2.9-23.4,3.4-34c0.3-7.3,0.5-11.6,0.5-15.6c-0.4-21.3-4.2-39.3-11.8-56.6c-7-16.1-17.6-32-33.4-50C734.6,40.3,653.7,10,557.1,10H249.3c-21.7,0-40.1,15.8-43.5,37.2l-55.5,357.8L81.2,850.6c-2.5,16.1,9.9,30.5,26.1,30.5h150.9l46.2-274.6C310.8,566.3,345.1,536.9,386,536.9L386,536.9z M881.6,287.1c-43.1,205.3-182.8,314.3-405.3,314.3H386c-8.9,0-16.4,6.4-17.9,15.4L307.9,990h158.3c18.9,0,35.1-13.8,38.1-32.5l1.6-8.2L536.1,758l2-10.6c2.9-18.7,19.1-32.5,38.1-32.5h24c155.2,0,276.6-63,312.1-245.3C926.8,394.5,919.4,331.7,881.6,287.1z"/></g></g>
</svg>